<svg xmlns="http://www.w3.org/2000/svg" xml:space="preserve" width="10902" height="4535" version="1.1" viewBox="0 0 10902 4536" shape-rendering="optimizeSpeed">
<defs>
 <style type="text/css">
    .l1 {fill: #FF0000}
    .l2 {fill: #2B2A29 }
    .l3 {fill: #FF0000 }
    .l4 {fill: #2B2A29}

    .c {fill:#0060FF}

    .white {fill:#FEFEFE}
    .grey {fill:#2B2A29;}
    .red {fill:#FF0000}
   </style>
</defs>
<rect class="white" y="0" x="0" width="10902" height="4535"/>

<!-- l1 -->

<path class="l1" d="M10236 208l0 29-90 0c1-11 4-22 9-31 5-10 14-23 29-39 11-13 18-22 20-26 4-7 6-14 6-20 0-8-1-13-5-17-3-3-7-5-12-5-11 0-18 9-18 26l-26-4c2-16 6-29 14-36 7-8 18-12 30-12 15 0 25 5 32 14 7 9 11 19 11 31 0 7-1 13-3 20-2 6-4 12-8 18-4 7-10 15-19 25-8 9-14 15-16 18-2 3-4 6-5 9l51 0zM9307 193l25-3c1 8 3 13 7 17 3 5 7 7 12 7 5 0 10-3 13-8 4-4 6-11 6-20 0-8-2-14-5-18-4-5-8-7-13-7-3 0-7 1-12 2l3-25c7 0 12-2 16-6 4-3 6-9 6-15 0-6-2-10-4-13-3-4-7-5-11-5-4 0-8 2-11 5-4 4-5 9-6 17l-24-5c3-15 7-26 15-33 7-7 16-10 27-10 12 0 21 4 29 13 7 9 10 18 10 29 0 7-1 13-4 19-4 6-8 11-15 15 8 2 14 6 18 13 5 7 7 16 7 26 0 15-4 27-13 37-9 10-19 15-32 15-11 0-21-5-29-13-9-8-13-19-15-34zM8524 237l0-33-55 0 0-28 58-103 21 0 0 103 17 0 0 28-17 0 0 33-24 0zm0-61l0-55-31 55 31 0zM7630 192l26-3c0 7 3 12 6 17 4 4 8 6 13 6 5 0 9-3 13-8 4-5 6-13 6-24 0-10-2-18-6-23-4-5-8-7-14-7-8 0-14 4-20 12l-21-4 13-85 68 0 0 29-48 0-4 28c5-3 11-5 17-5 11 0 20 4 27 12 9 11 14 25 14 42 0 15-4 28-12 40-8 12-19 18-34 18-12 0-21-4-29-12-8-8-13-19-15-33zM6878 114l-24 3c-2-12-6-18-15-18-6 0-10 3-14 9-4 6-6 18-7 37 3-5 7-8 11-11 4-2 8-3 13-3 10 0 19 5 27 15 8 9 12 22 12 38 0 18-4 31-12 41-9 10-19 15-31 15-13 0-24-7-33-20-9-12-13-33-13-63 0-30 4-51 13-64 9-13 21-20 35-20 10 0 19 3 26 10 6 7 11 17 12 31zm-58 68c0 10 2 18 6 23 4 6 8 9 13 9 5 0 9-3 12-7 3-5 5-12 5-22 0-11-2-19-5-24-4-5-8-7-13-7-5 0-9 2-13 7-3 5-5 12-5 21zM5953 102l0-29 88 0 0 23c-8 8-15 21-22 37-8 16-13 33-17 51-4 19-6 35-6 50l-25 0c1-23 4-46 12-69 7-23 16-44 28-63l-58 0zM5137 149c-7-4-11-8-15-14-3-5-4-12-4-20 0-13 3-23 11-31 7-7 17-11 29-11 13 0 23 4 30 12 6 8 10 18 10 30 0 8-2 15-5 20-3 6-8 11-14 14 8 3 14 9 17 15 4 7 6 15 6 25 0 10-2 19-5 27-4 7-9 13-16 17-7 5-14 7-22 7-13 0-24-5-32-14-9-9-13-21-13-36 0-10 2-18 6-25 4-7 9-13 17-16zm5-32c0 7 1 11 4 15 3 3 7 5 12 5 4 0 8-2 11-5 3-4 5-8 5-15 0-6-2-11-5-14-3-3-6-5-11-5-5 0-9 2-12 5-3 3-4 8-4 14zm-3 70c0 9 2 16 6 20 4 5 8 7 13 7 5 0 10-2 13-6 4-5 6-12 6-21 0-8-2-14-6-18-3-5-8-7-13-7-5 0-10 2-13 7-4 4-6 10-6 18zM4278 199l25-3c1 12 6 18 15 18 5 0 10-3 14-9 3-6 6-19 7-37-4 4-7 8-11 10-4 2-9 4-14 4-10 0-19-5-27-15-7-10-11-23-11-39 0-17 4-30 12-40 8-10 18-15 31-15 13 0 24 6 33 19 9 13 13 34 13 63 0 30-4 52-14 65-9 13-21 20-35 20-10 0-19-4-25-10-7-7-11-17-13-31zm58-68c0-10-2-18-5-24-4-5-9-8-14-8-4 0-8 2-11 7-4 4-5 12-5 22 0 11 2 18 5 23 3 5 8 8 13 8 5 0 9-3 12-7 4-5 5-12 5-21zM3496 237l-26 0 0-118c-9 11-20 19-33 24l0-29c7-3 15-8 22-15 8-8 13-16 16-26l21 0 0 164zM3558 73c13 0 24 6 32 19 8 12 12 33 12 64 0 31-4 53-12 65-8 12-19 19-31 19-13 0-24-7-32-19-8-12-12-34-12-65 0-31 4-52 12-64 8-13 19-19 31-19zm1 26c-6 0-10 3-13 10-3 7-4 22-4 47 0 25 1 41 4 48 3 6 7 10 13 10 5 0 9-4 12-10 3-7 4-23 4-48 0-25-1-40-4-47-3-7-7-10-12-10zM2657 73l27 0 0 103c0 17-1 30-5 38-3 8-8 14-15 19-6 4-15 6-24 6-13 0-23-4-31-13-7-9-10-22-11-40l26-4c0 10 2 17 4 21 3 5 7 8 13 8 5 0 10-2 12-6 3-4 4-13 4-27l0-105zM921,236L 921 236 921 73 948 73 948 146 1003 73 1040 73 989 137 1042 236 1007 236 970 160 948 187 948 236zM1873 218c7 6 14 11 22 14l-10 24c-4-2-8-4-12-7-1 0-7-5-18-14-9 5-19 7-30 7-20 0-35-7-47-22-12-14-18-35-18-63 0-27 6-48 18-62 12-15 28-22 47-22 19 0 35 7 47 22 12 14 18 35 18 62 0 14-2 25-4 35-3 9-7 18-13 26zm-22-18c7-10 11-24 11-42 0-20-4-34-11-43-6-9-15-14-26-14-11 0-20 5-27 14-7 9-10 23-10 43 0 19 3 33 10 43 7 9 16 13 26 13 4 0 7 0 11-2-6-4-11-8-17-10l8-19c9 4 17 9 25 17zM1477,811L 1477 648 1504 648 1504 720 1559 648 1596 648 1545 711 1598 811 1563 811 1526 734 1504 762 1504 811zM2422 792c7 6 14 10 22 14l-10 23c-4-1-8-3-12-6-1 0-7-5-18-14-9 4-19 7-31 7-19 0-34-8-46-22-12-15-18-35-18-63 0-27 6-48 18-63 12-14 28-21 47-21 19 0 35 7 47 21 12 15 18 36 18 63 0 13-2 25-4 34-3 10-7 19-13 27zm-22-19c7-9 11-23 11-42 0-19-4-33-11-42-7-9-15-14-26-14-11 0-20 5-27 14-7 9-10 23-10 42 0 20 3 34 10 43 7 10 16 14 26 14 4 0 7-1 11-2-6-5-11-8-17-10l8-19c9 3 17 9 25 16zM3231 646l27 0 0 104c0 17-2 29-5 37-4 8-9 15-15 19-7 4-15 7-25 7-13 0-23-5-30-14-7-8-11-22-11-40l26-3c0 9 1 16 3 20 3 6 7 8 13 8 6 0 10-2 13-6 2-4 4-12 4-26l0-106zM4019 810l-25 0 0-118c-10 11-21 19-34 24l0-29c8-3 15-8 23-15 7-8 13-16 16-26l20 0 0 164zM4082 646c13 0 23 6 31 19 8 12 12 34 12 65 0 30-4 52-12 64-8 13-18 19-31 19-13 0-24-6-32-19-8-12-12-33-12-65 0-30 4-52 12-64 8-13 19-19 32-19zm0 26c-5 0-9 4-12 10-3 7-5 23-5 48 0 25 2 40 5 47 3 7 7 10 12 10 5 0 9-4 12-10 3-7 4-23 4-47 0-25-1-41-4-48-3-6-7-10-12-10zM4850 772l25-3c1 12 6 18 14 18 6 0 11-3 14-9 4-6 6-18 7-37-3 5-7 8-11 10-4 3-8 4-13 4-10 0-19-5-27-15-8-9-12-22-12-38 0-18 4-31 13-41 8-10 18-15 30-15 14 0 25 7 34 19 8 13 13 34 13 64 0 29-5 51-14 64-9 13-21 20-35 20-11 0-19-3-25-10-7-7-11-17-13-31zm58-68c0-10-2-18-6-24-4-5-8-8-13-8-5 0-9 3-12 7-3 5-5 12-5 22 0 11 2 19 6 24 3 4 7 7 12 7 5 0 9-2 13-7 3-5 5-12 5-21zM5709 722c-6-3-11-8-14-13-3-6-5-13-5-21 0-13 4-23 11-30 7-8 17-12 29-12 13 0 23 4 30 12 7 9 10 18 10 30 0 8-1 15-5 21-3 5-8 10-13 13 7 4 13 9 17 16 4 6 6 14 6 24 0 10-2 19-6 27-4 8-9 14-15 18-7 4-14 6-23 6-13 0-23-5-32-14-8-9-12-21-12-36 0-10 2-18 6-25 3-7 9-12 16-16zm5-32c0 7 2 12 5 15 3 3 7 5 11 5 5 0 9-2 12-5 3-3 4-8 4-15 0-6-1-10-4-14-3-3-7-5-11-5-5 0-9 2-12 5-3 4-5 8-5 14zm-2 70c0 9 2 16 5 21 4 4 9 7 14 7 5 0 9-3 13-7 3-5 5-11 5-20 0-8-2-14-5-19-4-4-8-7-14-7-5 0-9 3-13 7-3 5-5 11-5 18zM6525 678l0-29 88 0 0 23c-7 8-14 21-22 37-7 16-13 33-17 51-4 19-6 35-6 50l-24 0c0-23 4-46 11-69 7-23 17-44 29-63l-59 0zM7450 687l-25 3c-1-12-6-18-14-18-6 0-11 3-14 9-4 6-6 19-7 37 3-5 7-8 10-10 4-3 9-4 13-4 11 0 20 5 28 15 8 10 12 23 12 39 0 17-4 30-13 40-8 10-18 15-30 15-14 0-25-7-34-19-8-13-13-34-13-63 0-30 5-52 14-65 9-13 21-20 35-20 10 0 18 4 25 10 7 7 11 17 13 31zm-58 68c0 10 2 18 6 24 4 5 8 8 13 8 5 0 9-2 12-7 3-4 5-12 5-22 0-11-2-19-6-23-3-5-7-8-12-8-5 0-9 3-13 7-3 5-5 12-5 21zM10807 781l0 29-90 0c1-11 4-21 9-31 5-10 15-23 29-39 11-13 18-22 21-26 4-7 6-13 6-20 0-7-2-13-5-16-3-4-8-6-13-6-11 0-17 9-18 26l-26-4c2-16 7-28 14-36 8-8 18-12 31-12 14 0 25 5 32 14 7 9 10 20 10 31 0 7-1 14-2 20-2 6-5 12-9 19-4 6-10 14-19 24-8 9-13 15-15 18-2 3-4 6-6 9l51 0zM8202 768l25-3c1 7 3 12 7 17 3 4 8 6 12 6 5 0 10-3 14-8 3-5 5-13 5-24 0-10-2-18-5-23-4-5-9-7-15-7-7 0-14 4-20 12l-20-4 13-85 68 0 0 29-49 0-4 28c6-3 12-5 18-5 10 0 19 4 27 12 9 11 13 25 13 42 0 15-3 28-11 40-8 12-20 18-34 18-12 0-22-4-30-12-8-8-13-19-14-33zM217 236l-29 0-12-37-54 0-11 37-28 0 52-163 29 0 53 163zm-50-64l-18-61-18 61 36 0zM766 810l-29 0-12-37-53 0-11 37-29 0 52-163 29 0 53 163zm-49-64l-19-61-18 61 37 0zM9092 810l0-33-55 0 0-27 58-104 22 0 0 104 16 0 0 27-16 0 0 33-25 0zm0-60l0-56-31 56 31 0zM9879 767l25-4c1 8 3 14 6 18 4 4 8 6 13 6 5 0 10-3 13-7 4-5 6-12 6-20 0-8-2-15-5-19-4-5-8-7-13-7-3 0-7 1-12 2l3-25c7 0 12-2 16-5 4-4 6-9 6-16 0-6-2-10-5-13-2-3-6-5-10-5-5 0-8 2-12 6-3 3-5 9-5 16l-24-5c3-15 7-26 15-33 7-6 16-10 27-10 12 0 21 5 29 13 7 9 10 19 10 29 0 7-1 14-5 19-3 6-8 11-14 15 7 2 14 7 18 14 5 6 7 15 7 25 0 15-4 27-13 37-9 10-19 15-32 15-11 0-21-4-30-13-8-8-12-19-14-33zM605 979l 93 105l 93 -105l -93 -105zM1444 979l 93 105l 93 -105l -93 -105zM2283 979l 93 105l 93 -105l -93 -105zM3121 979l 93 105l 93 -105l -93 -105zM3960 979l 93 105l 93 -105l -93 -105zM4799 979l 93 105l 93 -105l -93 -105zM5637 979l 93 105l 93 -105l -93 -105zM6476 979l 93 105l 93 -105l -93 -105zM7314 979l 93 105l 93 -105l -93 -105zM8153 979l 93 105l 93 -105l -93 -105zM8992 979l 93 105l 93 -105l -93 -105zM9830 979l 93 105l 93 -105l -93 -105zM10669 979l 93 105l 93 -105l -93 -105zM82, 405l 93 105l 93 -105l -93 -105zM921 405l 93 105l 93 -105l -93 -105zM1759 405l 93 105l 93 -105l -93 -105zM2598 405l 93 105l 93 -105l -93 -105zM3437 405l 93 105l 93 -105l -93 -105zM4275 405l 93 105l 93 -105l -93 -105zM5114 405l 93 105l 93 -105l -93 -105zM5952 405l 93 105l 93 -105l -93 -105zM6791 405l 93 105l 93 -105l -93 -105zM7630 405l 93 105l 93 -105l -93 -105zM8468 405l 93 105l 93 -105l -93 -105zM9307 405l 93 105l 93 -105l -93 -105zM10146 405l 93 105l 93 -105l -93 -105z"></path>

<!-- l2 -->

<path class="l2" d="M6878 1248l-24 3c-2-12-6-18-15-18-6 0-10 3-14 9-4 6-6 18-7 37 3-5 7-8 11-11 4-2 8-3 13-3 10 0 19 5 27 14 8 10 12 23 12 39 0 18-4 31-12 41-9 10-19 14-31 14-13 0-24-6-33-19-9-12-13-33-13-63 0-30 4-51 13-64 9-14 21-20 35-20 10 0 19 3 26 10 6 7 11 17 12 31zm-58 68c0 10 2 18 6 23 4 6 8 8 13 8 5 0 9-2 12-6 3-5 5-12 5-22 0-11-2-19-5-24-4-5-8-7-13-7-5 0-9 2-13 7-3 5-5 12-5 21zM5953 1236l0-29 88 0 0 23c-8 8-15 21-22 37-8 16-13 33-17 51-4 18-6 35-6 50l-25 0c1-23 4-46 12-69 7-24 16-44 28-63l-58 0zM5137 1283c-7-4-11-8-15-14-3-5-4-12-4-20 0-13 3-23 11-31 7-7 17-11 29-11 13 0 23 4 30 12 6 8 10 18 10 30 0 8-2 14-5 20-3 6-8 10-14 14 8 3 14 8 17 15 4 7 6 15 6 25 0 10-2 19-5 27-4 7-9 13-16 17-7 4-14 6-22 6-13 0-24-4-32-13-9-9-13-21-13-36 0-10 2-18 6-25 4-7 9-13 17-16zm5-32c0 6 1 11 4 15 3 3 7 5 12 5 4 0 8-2 11-5 3-4 5-9 5-15 0-6-2-11-5-14-3-4-6-5-11-5-5 0-9 1-12 5-3 3-4 8-4 14zm-3 70c0 9 2 15 6 20 4 5 8 7 13 7 5 0 10-2 13-6 4-5 6-12 6-21 0-8-2-14-6-18-3-5-8-7-13-7-5 0-10 2-13 7-4 4-6 10-6 18zM4278 1333l25-4c1 13 6 19 15 19 5 0 10-3 14-9 3-6 6-19 7-37-4 4-7 8-11 10-4 2-9 4-14 4-10 0-19-5-27-15-7-10-11-23-11-39 0-17 4-30 12-40 8-10 18-15 31-15 13 0 24 6 33 19 9 13 13 34 13 63 0 30-4 52-14 65-9 13-21 19-35 19-10 0-19-3-25-9-7-7-11-17-13-31zm58-68c0-11-2-18-5-24-4-5-9-8-14-8-4 0-8 2-11 7-4 4-5 12-5 22 0 11 2 18 5 23 3 5 8 7 13 7 5 0 9-2 12-6 4-5 5-12 5-21zM3496 1371l-26 0 0-118c-9 11-20 18-33 23l0-28c7-3 15-8 22-15 8-8 13-16 16-26l21 0 0 164zM3558 1207c13 0 24 6 32 18 8 13 12 34 12 65 0 31-4 53-12 65-8 12-19 18-31 18-13 0-24-6-32-18-8-12-12-34-12-65 0-31 4-52 12-65 8-12 19-18 31-18zm1 26c-6 0-10 3-13 10-3 7-4 22-4 47 0 25 1 41 4 48 3 6 7 9 13 9 5 0 9-3 12-10 3-6 4-22 4-47 0-25-1-40-4-47-3-7-7-10-12-10zM2657 1207l27 0 0 103c0 17-1 29-5 38-3 8-8 14-15 18-6 5-15 7-24 7-13 0-23-4-31-13-7-9-10-22-11-40l26-4c0 10 2 17 4 21 3 5 7 8 13 8 5 0 10-2 12-6 3-4 4-13 4-27l0-105zM921,1370L 921 1207 948 1207 948 1280 1003 1207 1040 1207 989 1270 1042 1370 1007 1370 970 1294 948 1321 948 1370zM1873 1352c7 6 14 11 22 14l-10 23c-4-1-8-3-12-6-1 0-7-5-18-14-9 4-19 7-30 7-20 0-35-7-47-22-12-14-18-35-18-63 0-27 6-48 18-62 12-15 28-22 47-22 19 0 35 7 47 22 12 14 18 35 18 62 0 14-2 25-4 35-3 9-7 18-13 26zm-22-18c7-10 11-24 11-43 0-19-4-33-11-42-6-9-15-14-26-14-11 0-20 5-27 14-7 9-10 23-10 42 0 20 3 34 10 43 7 10 16 14 26 14 4 0 7 0 11-2-6-4-11-8-17-10l8-19c9 4 17 9 25 17zM10245 1590l12 12 19 17-37 0-36 0 18-17 12-12 0-22-9 0c-7 13-21 23-37 23-23 0-41-19-41-41 0-23 18-41 41-41 13 0 24 5 31 14l7-11c-16-6-27-21-27-39 0-22 18-41 41-41 23 0 41 19 41 41 0 18-11 33-27 39l7 11c7-9 18-14 31-14 23 0 41 18 41 41 0 22-18 41-41 41-16 0-30-10-37-23l-9 0 0 22zM9406 1590l13 12 18 17-37 0-36 0 18-17 13-12 0-22-10 0c-7 13-21 23-37 23-22 0-41-19-41-41 0-23 19-41 41-41 13 0 24 5 32 14l6-11c-15-6-27-21-27-39 0-22 19-41 41-41 23 0 41 19 41 41 0 18-11 33-27 39l7 11c8-9 19-14 31-14 23 0 41 18 41 41 0 22-18 41-41 41-16 0-30-10-36-23l-10 0 0 22zM8567 1590l13 12 18 17-36 0-37 0 19-17 12-12 0-22-10 0c-6 13-20 23-36 23-23 0-41-19-41-41 0-23 18-41 41-41 12 0 24 5 31 14l7-11c-16-6-27-21-27-39 0-22 18-41 41-41 22 0 41 19 41 41 0 18-11 33-27 39l6 11c8-9 19-14 32-14 22 0 41 18 41 41 0 22-19 41-41 41-16 0-30-10-37-23l-10 0 0 22zM7729 1590l12 12 19 17-37 0-36 0 18-17 13-12 0-22-10 0c-7 13-21 23-37 23-23 0-41-19-41-41 0-23 18-41 41-41 13 0 24 5 32 14l6-11c-16-6-27-21-27-39 0-22 19-41 41-41 23 0 41 19 41 41 0 18-11 33-27 39l7 11c7-9 19-14 31-14 23 0 41 18 41 41 0 22-18 41-41 41-16 0-30-10-36-23l-10 0 0 22zM6890 1590l13 12 18 17-36 0-37 0 18-17 13-12 0-22-10 0c-6 13-20 23-36 23-23 0-41-19-41-41 0-23 18-41 41-41 12 0 23 5 31 14l7-11c-16-6-27-21-27-39 0-22 18-41 41-41 22 0 41 19 41 41 0 18-12 33-27 39l6 11c8-9 19-14 32-14 22 0 41 18 41 41 0 22-19 41-41 41-16 0-30-10-37-23l-10 0 0 22zM6052 1590l12 12 18 17-36 0-37 0 19-17 12-12 0-22-9 0c-7 13-21 23-37 23-23 0-41-19-41-41 0-23 18-41 41-41 13 0 24 5 31 14l7-11c-16-6-27-21-27-39 0-22 18-41 41-41 23 0 41 19 41 41 0 18-11 33-27 39l7 11c7-9 18-14 31-14 23 0 41 18 41 41 0 22-18 41-41 41-16 0-30-10-37-23l-9 0 0 22zM5213 1590l13 12 18 17-37 0-36 0 18-17 13-12 0-22-10 0c-7 13-21 23-37 23-22 0-41-19-41-41 0-23 19-41 41-41 13 0 24 5 32 14l6-11c-15-6-27-21-27-39 0-22 19-41 41-41 23 0 41 19 41 41 0 18-11 33-27 39l7 11c7-9 19-14 31-14 23 0 41 18 41 41 0 22-18 41-41 41-16 0-30-10-36-23l-10 0 0 22zM4374 1590l13 12 18 17-36 0-37 0 18-17 13-12 0-22-10 0c-6 13-20 23-36 23-23 0-41-19-41-41 0-23 18-41 41-41 12 0 24 5 31 14l7-11c-16-6-27-21-27-39 0-22 18-41 41-41 22 0 41 19 41 41 0 18-12 33-27 39l6 11c8-9 19-14 32-14 22 0 41 18 41 41 0 22-19 41-41 41-16 0-30-10-37-23l-10 0 0 22zM3536 1590l12 12 19 17-37 0-36 0 18-17 13-12 0-22-10 0c-7 13-21 23-37 23-23 0-41-19-41-41 0-23 18-41 41-41 13 0 24 5 31 14l7-11c-16-6-27-21-27-39 0-22 18-41 41-41 23 0 41 19 41 41 0 18-11 33-27 39l7 11c7-9 19-14 31-14 23 0 41 18 41 41 0 22-18 41-41 41-16 0-30-10-37-23l-9 0 0 22zM2697 1590l13 12 18 17-37 0-36 0 18-17 13-12 0-22-10 0c-7 13-20 23-37 23-22 0-41-19-41-41 0-23 19-41 41-41 13 0 24 5 32 14l6-11c-15-6-26-21-26-39 0-22 18-41 40-41 23 0 41 19 41 41 0 18-11 33-26 39l6 11c8-9 19-14 32-14 22 0 41 18 41 41 0 22-19 41-41 41-17 0-31-10-37-23l-10 0 0 22zM1858 1590l13 12 18 17-36 0-37 0 19-17 12-12 0-22-9 0c-7 13-21 23-37 23-23 0-41-19-41-41 0-23 18-41 41-41 12 0 24 5 31 14l7-11c-16-6-27-21-27-39 0-22 18-41 41-41 22 0 41 19 41 41 0 18-11 33-27 39l6 11c8-9 19-14 32-14 23 0 41 18 41 41 0 22-18 41-41 41-16 0-30-10-37-23l-10 0 0 22zM1020 1590l13 12 18 17-37 0-36 0 18-17 13-12 0-22-10 0c-7 13-21 23-37 23-22 0-41-19-41-41 0-23 19-41 41-41 13 0 24 5 32 14l6-11c-15-6-27-21-27-39 0-22 19-41 41-41 23 0 41 19 41 41 0 18-11 33-27 39l7 11c7-9 19-14 31-14 23 0 41 18 41 41 0 22-18 41-41 41-16 0-30-10-36-23l-10 0 0 22zM10236 1342l0 29-90 0c1-11 4-22 9-32 5-9 14-22 29-39 11-12 18-21 20-26 4-6 6-13 6-20 0-7-1-12-5-16-3-3-7-5-12-5-11 0-18 8-18 25l-26-3c2-17 6-29 14-36 7-8 18-12 30-12 15 0 25 4 32 14 7 9 11 19 11 31 0 7-1 13-3 19-2 7-4 13-8 19-4 7-10 15-19 25-8 9-14 15-16 18-2 3-4 6-5 9l51 0zM9307 1327l25-3c1 7 3 13 7 17 3 4 7 6 12 6 5 0 10-2 13-7 4-5 6-11 6-20 0-8-2-14-5-18-4-5-8-7-13-7-3 0-7 1-12 2l3-26c7 1 12-1 16-5 4-3 6-9 6-15 0-6-2-10-4-14-3-3-7-4-11-4-4 0-8 2-11 5-4 4-5 9-6 17l-24-5c3-15 7-26 15-33 7-7 16-10 27-10 12 0 21 4 29 13 7 9 10 18 10 29 0 7-1 13-4 19-4 6-8 11-15 15 8 2 14 6 18 13 5 7 7 16 7 26 0 15-4 27-13 37-9 10-19 14-32 14-11 0-21-4-29-12-9-8-13-19-15-34zM8524 1371l0-33-55 0 0-28 58-103 21 0 0 103 17 0 0 28-17 0 0 33-24 0zm0-61l0-55-31 55 31 0zM7630 1326l26-3c0 7 3 12 6 16 4 5 8 7 13 7 5 0 9-3 13-8 4-5 6-13 6-24 0-10-2-18-6-23-4-5-8-7-14-7-8 0-14 4-20 12l-21-4 13-85 68 0 0 29-48 0-4 28c5-4 11-5 17-5 11 0 20 4 27 12 9 11 14 25 14 42 0 14-4 28-12 40-8 12-19 18-34 18-12 0-21-4-29-12-8-8-13-19-15-33zM1477,1973L 1477 1810 1504 1810 1504 1882 1559 1810 1596 1810 1545 1873 1598 1973 1563 1973 1526 1896 1504 1924 1504 1973zM1543 2192l13 12 18 17-36 0-37 0 18-17 13-12 0-22-10 0c-6 13-20 22-36 22-23 0-41-18-41-41 0-22 18-41 41-41 12 0 23 6 31 15l7-12c-16-5-27-20-27-38 0-23 18-41 41-41 22 0 41 18 41 41 0 18-12 33-27 38l6 12c8-9 19-15 32-15 22 0 41 19 41 41 0 23-19 41-41 41-16 0-30-9-37-22l-10 0 0 22zM2422 1945c7 6 14 11 22 14l-10 24c-4-2-8-4-12-6-1-1-7-6-18-15-9 5-19 7-31 7-19 0-34-7-46-22-12-14-18-35-18-62 0-28 6-49 18-63 12-15 28-22 47-22 19 0 35 7 47 22 12 14 18 35 18 63 0 13-2 24-4 34-3 9-7 18-13 26zm-22-18c7-10 11-24 11-42 0-19-4-34-11-43-7-9-15-14-26-14-11 0-20 5-27 14-7 9-10 24-10 43 0 19 3 33 10 43 7 9 16 14 26 14 4 0 7-1 11-3-6-4-11-8-17-10l8-19c9 4 17 9 25 17zM2382 2192l12 12 19 17-37 0-36 0 18-17 13-12 0-22-10 0c-7 13-21 22-37 22-22 0-41-18-41-41 0-22 19-41 41-41 13 0 24 6 32 15l6-12c-16-5-27-20-27-38 0-23 19-41 41-41 23 0 41 18 41 41 0 18-11 33-27 38l7 12c7-9 19-15 31-15 23 0 41 19 41 41 0 23-18 41-41 41-16 0-30-9-36-22l-10 0 0 22zM3231 1808l27 0 0 104c0 16-2 29-5 37-4 8-9 15-15 19-7 4-15 6-25 6-13 0-23-4-30-13-7-9-11-22-11-40l26-3c0 9 1 16 3 20 3 5 7 8 13 8 6 0 10-2 13-6 2-4 4-13 4-26l0-106zM3220 2192l13 12 18 17-36 0-37 0 19-17 12-12 0-22-9 0c-7 13-21 22-37 22-23 0-41-18-41-41 0-22 18-41 41-41 12 0 24 6 31 15l7-12c-16-5-27-20-27-38 0-23 18-41 41-41 22 0 41 18 41 41 0 18-11 33-27 38l6 12c8-9 19-15 32-15 23 0 41 19 41 41 0 23-18 41-41 41-16 0-30-9-37-22l-10 0 0 22zM4019 1972l-25 0 0-118c-10 11-21 19-34 24l0-29c8-3 15-8 23-15 7-8 13-16 16-26l20 0 0 164zM4082 1808c13 0 23 6 31 19 8 12 12 34 12 64 0 31-4 53-12 65-8 13-18 19-31 19-13 0-24-6-32-19-8-12-12-34-12-65 0-31 4-52 12-64 8-13 19-19 32-19zm0 26c-5 0-9 3-12 10-3 7-5 23-5 47 0 25 2 41 5 48 3 6 7 10 12 10 5 0 9-4 12-10 3-7 4-23 4-48 0-24-1-40-4-47-3-7-7-10-12-10zM4059 2192l13 12 18 17-37 0-36 0 18-17 13-12 0-22-10 0c-7 13-20 22-37 22-22 0-41-18-41-41 0-22 19-41 41-41 13 0 24 6 32 15l6-12c-15-5-27-20-27-38 0-23 19-41 41-41 23 0 41 18 41 41 0 18-11 33-26 38l6 12c8-9 19-15 32-15 22 0 40 19 40 41 0 23-18 41-40 41-17 0-31-9-37-22l-10 0 0 22zM4850 1934l25-3c1 12 6 18 14 18 6 0 11-3 14-9 4-6 6-18 7-37-3 5-7 8-11 10-4 3-8 4-13 4-10 0-19-5-27-15-8-10-12-22-12-38 0-18 4-31 13-41 8-10 18-15 30-15 14 0 25 6 34 19 8 13 13 34 13 63 0 30-5 52-14 65-9 13-21 20-35 20-11 0-19-4-25-10-7-7-11-17-13-31zm58-68c0-10-2-18-6-24-4-5-8-8-13-8-5 0-9 2-12 7-3 4-5 12-5 22 0 11 2 19 6 23 3 5 7 8 12 8 5 0 9-3 13-7 3-5 5-12 5-21zM4898 2192l12 12 19 17-37 0-36 0 18-17 12-12 0-22-9 0c-7 13-21 22-37 22-23 0-41-18-41-41 0-22 18-41 41-41 13 0 24 6 31 15l7-12c-16-5-27-20-27-38 0-23 18-41 41-41 23 0 41 18 41 41 0 18-11 33-27 38l7 12c7-9 18-15 31-15 23 0 41 19 41 41 0 23-18 41-41 41-16 0-30-9-37-22l-9 0 0 22zM5709 1884c-6-4-11-8-14-14-3-5-5-12-5-20 0-13 4-23 11-30 7-8 17-12 29-12 13 0 23 4 30 12 7 8 10 18 10 30 0 8-1 15-5 20-3 6-8 11-13 14 7 3 13 9 17 15 4 7 6 15 6 25 0 10-2 19-6 27-4 8-9 14-15 18-7 4-14 6-23 6-13 0-23-5-32-14-8-9-12-21-12-36 0-10 2-18 6-25 3-7 9-13 16-16zm5-32c0 7 2 12 5 15 3 3 7 5 11 5 5 0 9-2 12-5 3-3 4-8 4-15 0-6-1-11-4-14-3-3-7-5-11-5-5 0-9 2-12 5-3 4-5 8-5 14zm-2 70c0 9 2 16 5 20 4 5 9 8 14 8 5 0 9-3 13-7 3-5 5-12 5-21 0-7-2-14-5-18-4-5-8-7-14-7-5 0-9 2-13 7-3 5-5 11-5 18zM5736 2192l13 12 18 17-36 0-37 0 18-17 13-12 0-22-10 0c-6 13-20 22-36 22-23 0-41-18-41-41 0-22 18-41 41-41 12 0 24 6 31 15l7-12c-16-5-27-20-27-38 0-23 18-41 41-41 22 0 41 18 41 41 0 18-12 33-27 38l6 12c8-9 19-15 32-15 22 0 41 19 41 41 0 23-19 41-41 41-16 0-30-9-37-22l-10 0 0 22zM6525 1840l0-29 88 0 0 23c-7 8-14 21-22 37-7 16-13 33-17 51-4 18-6 35-6 50l-24 0c0-23 4-46 11-69 7-24 17-44 29-63l-59 0zM6575 2192l13 12 18 17-37 0-36 0 18-17 13-12 0-22-10 0c-7 13-21 22-37 22-22 0-41-18-41-41 0-22 19-41 41-41 13 0 24 6 32 15l6-12c-15-5-27-20-27-38 0-23 19-41 41-41 23 0 41 18 41 41 0 18-11 33-27 38l7 12c7-9 19-15 31-15 23 0 41 19 41 41 0 23-18 41-41 41-16 0-30-9-36-22l-10 0 0 22zM7450 1849l-25 3c-1-12-6-18-14-18-6 0-11 3-14 9-4 6-6 18-7 37 3-5 7-8 10-10 4-3 9-4 13-4 11 0 20 5 28 15 8 9 12 22 12 39 0 17-4 30-13 40-8 10-18 15-30 15-14 0-25-7-34-19-8-13-13-34-13-64 0-30 5-51 14-64 9-13 21-20 35-20 10 0 18 3 25 10 7 7 11 17 13 31zm-58 68c0 10 2 18 6 24 4 5 8 8 13 8 5 0 9-3 12-7 3-5 5-12 5-22 0-11-2-19-6-24-3-4-7-7-12-7-5 0-9 2-13 7-3 5-5 12-5 21zM7414 2192l12 12 18 17-36 0-37 0 19-17 12-12 0-22-9 0c-7 13-21 22-37 22-23 0-41-18-41-41 0-22 18-41 41-41 12 0 24 6 31 15l7-12c-16-5-27-20-27-38 0-23 18-41 41-41 23 0 41 18 41 41 0 18-11 33-27 38l7 12c7-9 18-15 31-15 23 0 41 19 41 41 0 23-18 41-41 41-16 0-30-9-37-22l-9 0 0 22zM8252 2192l13 12 18 17-36 0-37 0 18-17 13-12 0-22-10 0c-6 13-20 22-37 22-22 0-40-18-40-41 0-22 18-41 40-41 13 0 24 6 32 15l6-12c-15-5-26-20-26-38 0-23 18-41 41-41 22 0 41 18 41 41 0 18-12 33-27 38l6 12c8-9 19-15 32-15 22 0 41 19 41 41 0 23-19 41-41 41-17 0-30-9-37-22l-10 0 0 22zM8202 1930l25-3c1 7 3 12 7 16 3 5 8 7 12 7 5 0 10-3 14-8 3-5 5-13 5-24 0-10-2-18-5-23-4-5-9-7-15-7-7 0-14 4-20 12l-20-4 13-85 68 0 0 29-49 0-4 28c6-4 12-5 18-5 10 0 19 4 27 12 9 11 13 25 13 42 0 14-3 28-11 40-8 12-20 18-34 18-12 0-22-4-30-12-8-8-13-19-14-33zM9091 2192l12 12 19 17-37 0-36 0 18-17 13-12 0-22-10 0c-7 13-21 22-37 22-23 0-41-18-41-41 0-22 18-41 41-41 13 0 24 6 32 15l6-12c-16-5-27-20-27-38 0-23 19-41 41-41 23 0 41 18 41 41 0 18-11 33-27 38l7 12c7-9 19-15 31-15 23 0 41 19 41 41 0 23-18 41-41 41-16 0-30-9-37-22l-9 0 0 22zM9092 1972l0-33-55 0 0-27 58-104 22 0 0 103 16 0 0 28-16 0 0 33-25 0zm0-61l0-55-31 55 31 0zM9929 2192l13 12 18 17-36 0-37 0 19-17 12-12 0-22-10 0c-6 13-20 22-36 22-23 0-41-18-41-41 0-22 18-41 41-41 12 0 24 6 31 15l7-12c-16-5-27-20-27-38 0-23 18-41 41-41 22 0 41 18 41 41 0 18-11 33-27 38l6 12c8-9 19-15 32-15 22 0 41 19 41 41 0 23-19 41-41 41-16 0-30-9-37-22l-10 0 0 22zM9879 1929l25-4c1 8 3 14 6 18 4 4 8 6 13 6 5 0 10-3 13-8 4-4 6-11 6-20 0-7-2-14-5-18-4-5-8-7-13-7-3 0-7 1-12 2l3-25c7 0 12-2 16-6 4-3 6-8 6-15 0-6-2-10-5-13-2-3-6-5-10-5-5 0-8 2-12 5-3 4-5 10-5 17l-24-5c3-15 7-26 15-33 7-6 16-10 27-10 12 0 21 4 29 13 7 9 10 18 10 29 0 7-1 13-5 19-3 6-8 11-14 15 7 2 14 7 18 13 5 7 7 16 7 26 0 15-4 27-13 37-9 10-19 15-32 15-11 0-21-4-30-13-8-8-12-19-14-33zM10768 2192l13 12 18 17-37 0-36 0 18-17 13-12 0-22-10 0c-7 13-21 22-37 22-22 0-41-18-41-41 0-22 19-41 41-41 13 0 24 6 32 15l6-12c-15-5-27-20-27-38 0-23 19-41 41-41 23 0 41 18 41 41 0 18-11 33-27 38l7 12c8-9 19-15 31-15 23 0 41 19 41 41 0 23-18 41-41 41-16 0-30-9-36-22l-10 0 0 22zM10807 1943l0 29-90 0c1-11 4-21 9-31 5-10 15-23 29-39 11-13 18-22 21-26 4-7 6-14 6-20 0-7-2-13-5-16-3-4-8-6-13-6-11 0-17 9-18 26l-26-4c2-16 7-28 14-36 8-8 18-12 31-12 14 0 25 5 32 14 7 9 10 19 10 31 0 7-1 13-2 20-2 6-5 12-9 19-4 6-10 14-19 24-8 9-13 15-15 18-2 3-4 6-6 9l51 0zM217 1370l-29 0-12-37-54 0-11 37-28 0 52-163 29 0 53 163zm-50-64l-18-61-18 61 36 0zM181 1590l13 12 18 17-36 0-37 0 18-17 13-12 0-22-10 0c-6 13-20 23-36 23-23 0-41-19-41-41 0-23 18-41 41-41 12 0 24 5 31 14l7-11c-16-6-27-21-27-39 0-22 18-41 41-41 22 0 41 19 41 41 0 18-12 33-27 39l6 11c8-9 19-14 32-14 22 0 41 18 41 41 0 22-19 41-41 41-16 0-30-10-37-23l-10 0 0 22zM766 1972l-29 0-12-37-53 0-11 37-29 0 52-163 29 0 53 163zm-49-65l-19-60-18 60 37 0zM705 2192l12 12 18 17-36 0-36 0 18-17 12-12 0-22-9 0c-7 13-21 22-37 22-23 0-41-18-41-41 0-22 18-41 41-41 13 0 24 6 31 15l7-12c-16-5-27-20-27-38 0-23 18-41 41-41 23 0 41 18 41 41 0 18-11 33-27 38l7 12c7-9 18-15 31-15 23 0 41 19 41 41 0 23-18 41-41 41-16 0-30-9-37-22l-9 0 0 22z"/>

<!-- l3 -->

<path class="l3" d="M6878 2381l-24 4c-2-12-6-18-15-18-6 0-10 3-14 9-4 6-6 18-7 37 3-5 7-8 11-11 4-2 8-3 13-3 10 0 19 5 27 14 8 10 12 23 12 39 0 17-4 31-12 41-9 9-19 14-31 14-13 0-24-6-33-19-9-12-13-34-13-63 0-30 4-51 13-64 9-14 21-20 35-20 10 0 19 3 26 10 6 7 11 17 12 30zm-58 69c0 10 2 18 6 23 4 6 8 8 13 8 5 0 9-2 12-6 3-5 5-12 5-23 0-10-2-18-5-23-4-5-8-7-13-7-5 0-9 2-13 7-3 4-5 11-5 21zM5953 2370l0-29 88 0 0 23c-8 8-15 21-22 37-8 16-13 33-17 51-4 18-6 35-6 50l-25 0c1-23 4-46 12-70 7-23 16-44 28-62l-58 0zM5137 2416c-7-3-11-7-15-13-3-6-4-12-4-20 0-13 3-23 11-31 7-7 17-11 29-11 13 0 23 4 30 12 6 8 10 18 10 30 0 7-2 14-5 20-3 6-8 10-14 13 8 4 14 9 17 16 4 7 6 15 6 25 0 10-2 19-5 27-4 7-9 13-16 17-7 4-14 6-22 6-13 0-24-4-32-13-9-9-13-21-13-36 0-10 2-18 6-25 4-8 9-13 17-17zm5-31c0 6 1 11 4 15 3 3 7 5 12 5 4 0 8-2 11-5 3-4 5-9 5-15 0-6-2-11-5-14-3-4-6-5-11-5-5 0-9 1-12 5-3 3-4 8-4 14zm-3 70c0 9 2 15 6 20 4 5 8 7 13 7 5 0 10-2 13-7 4-4 6-11 6-20 0-8-2-14-6-18-3-5-8-7-13-7-5 0-10 2-13 7-4 4-6 10-6 18zM4278 2467l25-4c1 13 6 19 15 19 5 0 10-3 14-9 3-7 6-19 7-37-4 4-7 8-11 10-4 2-9 3-14 3-10 0-19-4-27-14-7-10-11-23-11-39 0-17 4-31 12-40 8-10 18-15 31-15 13 0 24 6 33 19 9 13 13 34 13 63 0 30-4 52-14 65-9 13-21 19-35 19-10 0-19-3-25-10-7-6-11-16-13-30zm58-69c0-10-2-18-5-23-4-5-9-8-14-8-4 0-8 2-11 7-4 4-5 12-5 22 0 11 2 18 5 23 3 5 8 7 13 7 5 0 9-2 12-7 4-4 5-11 5-21zM3496 2505l-26 0 0-118c-9 10-20 18-33 23l0-28c7-3 15-8 22-16 8-7 13-16 16-25l21 0 0 164zM3558 2341c13 0 24 6 32 18 8 13 12 34 12 65 0 31-4 52-12 65-8 12-19 18-31 18-13 0-24-6-32-18-8-12-12-34-12-65 0-31 4-52 12-65 8-12 19-18 31-18zm1 26c-6 0-10 3-13 10-3 6-4 22-4 47 0 25 1 41 4 47 3 7 7 10 13 10 5 0 9-3 12-10 3-6 4-22 4-47 0-25-1-41-4-47-3-7-7-10-12-10zM2657 2341l27 0 0 103c0 17-1 29-5 38-3 8-8 14-15 18-6 5-15 7-24 7-13 0-23-4-31-13-7-9-10-22-11-40l26-4c0 10 2 16 4 20 3 6 7 9 13 9 5 0 10-2 12-6 3-4 4-13 4-27l0-105zM1873 2486c7 6 14 10 22 14l-10 23c-4-1-8-3-12-6-1 0-7-5-18-14-9 4-19 7-30 7-20 0-35-8-47-22-12-14-18-35-18-63 0-27 6-48 18-63 12-14 28-21 47-21 19 0 35 7 47 21 12 15 18 36 18 63 0 14-2 25-4 35-3 9-7 18-13 26zm-22-18c7-10 11-24 11-43 0-19-4-33-11-42-6-9-15-14-26-14-11 0-20 5-27 14-7 9-10 23-10 42 0 20 3 34 10 43 7 10 16 14 26 14 4 0 7-1 11-2-6-5-11-8-17-10l8-19c9 4 17 9 25 17zM10239 2743l40-47c18-22 53-53 53-81 0-27-21-49-46-49-24 0-44 19-47 44l0 0c-3-25-23-44-46-44-26 0-47 22-47 49 0 28 35 59 53 81l40 47zM9400 2743l40-47c18-22 53-53 53-81 0-27-20-49-46-49-24 0-44 19-46 44l-1 0c-3-25-22-44-46-44-26 0-47 22-47 49 0 28 36 59 54 81l39 47zM8562 2743l39-47c19-22 54-53 54-81 0-27-21-49-47-49-24 0-43 19-46 44l-1 0c-2-25-22-44-46-44-25 0-46 22-46 49 0 28 35 59 53 81l40 47zM7723 2743l40-47c18-22 53-53 53-81 0-27-21-49-46-49-24 0-44 19-47 44l0 0c-3-25-22-44-46-44-26 0-47 22-47 49 0 28 35 59 54 81l39 47zM6885 2743l39-47c18-22 54-53 54-81 0-27-21-49-47-49-24 0-43 19-46 44l-1 0c-2-25-22-44-46-44-26 0-46 22-46 49 0 28 35 59 53 81l40 47zM6046 2743l39-47c19-22 54-53 54-81 0-27-21-49-47-49-23 0-43 19-46 44l0 0c-3-25-23-44-47-44-25 0-46 22-46 49 0 28 35 59 53 81l40 47zM5207 2743l40-47c18-22 53-53 53-81 0-27-20-49-46-49-24 0-44 19-46 44l-1 0c-3-25-22-44-46-44-26 0-47 22-47 49 0 28 36 59 54 81l39 47zM4369 2743l39-47c18-22 54-53 54-81 0-27-21-49-47-49-24 0-43 19-46 44l-1 0c-2-25-22-44-46-44-25 0-46 22-46 49 0 28 35 59 53 81l40 47zM3530 2743l40-47c18-22 53-53 53-81 0-27-21-49-46-49-24 0-44 19-47 44l0 0c-3-25-23-44-46-44-26 0-47 22-47 49 0 28 35 59 54 81l39 47zM2691 2743l40-47c18-22 54-53 54-81 0-27-21-49-47-49-24 0-44 19-46 44l-1 0c-2-25-22-44-46-44-26 0-47 22-47 49 0 28 36 59 54 81l39 47zM1853 2743l39-47c19-22 54-53 54-81 0-27-21-49-47-49-24 0-43 19-46 44l0 0c-3-25-23-44-47-44-25 0-46 22-46 49 0 28 35 59 53 81l40 47zM921,2505L921 2342 948 2342 948 2415 1003 2342 1040 2342 989 2405 1042 2505 1007 2505 970 2429 948 2456 948 2505zM1014 2743l40-47c18-22 53-53 53-81 0-27-21-49-46-49-24 0-44 19-46 44l-1 0c-3-25-22-44-46-44-26 0-47 22-47 49 0 28 36 59 54 81l39 47zM10236 2476l0 29-90 0c1-11 4-22 9-32 5-10 14-23 29-39 11-12 18-21 20-26 4-6 6-13 6-20 0-7-1-12-5-16-3-3-7-5-12-5-11 0-18 8-18 25l-26-3c2-17 6-29 14-37 7-7 18-11 30-11 15 0 25 4 32 13 7 10 11 20 11 32 0 7-1 13-3 19-2 7-4 13-8 19-4 7-10 15-19 25-8 9-14 15-16 18-2 3-4 6-5 9l51 0zM9307 2461l25-3c1 7 3 13 7 17 3 4 7 6 12 6 5 0 10-2 13-7 4-5 6-11 6-20 0-8-2-14-5-19-4-4-8-6-13-6-3 0-7 0-12 2l3-26c7 1 12-1 16-5 4-4 6-9 6-15 0-6-2-10-4-14-3-3-7-4-11-4-4 0-8 1-11 5-4 4-5 9-6 16l-24-4c3-15 7-26 15-33 7-7 16-10 27-10 12 0 21 4 29 13 7 8 10 18 10 29 0 7-1 13-4 19-4 6-8 10-15 15 8 2 14 6 18 13 5 7 7 15 7 26 0 15-4 27-13 37-9 10-19 14-32 14-11 0-21-4-29-12-9-8-13-19-15-34zM8524 2505l0-33-55 0 0-28 58-103 21 0 0 103 17 0 0 28-17 0 0 33-24 0zm0-61l0-56-31 56 31 0zM7630 2460l26-4c0 8 3 13 6 17 4 4 8 7 13 7 5 0 9-3 13-8 4-6 6-14 6-24 0-11-2-18-6-23-4-5-8-7-14-7-8 0-14 4-20 12l-21-4 13-85 68 0 0 29-48 0-4 28c5-4 11-5 17-5 11 0 20 4 27 12 9 11 14 25 14 42 0 14-4 28-12 40-8 12-19 18-34 18-12 0-21-4-29-12-8-8-13-19-15-33zM1477,3117L 1477 2953 1504 2953 1504 3026 1559 2953 1596 2953 1545 3017 1598 3117 1563 3117 1526 3040 1504 3067 1504 3117zM1538 3354l39-47c18-22 54-53 54-81 0-27-21-49-47-49-24 0-43 19-46 44l-1 0c-2-25-22-44-46-44-26 0-46 22-46 49 0 28 35 59 53 81l40 47zM2422 3089c7 6 14 10 22 14l-10 23c-4-1-8-3-12-6-1 0-7-5-18-15-9 5-19 7-31 7-19 0-34-7-46-21-12-15-18-36-18-63 0-27 6-48 18-63 12-14 28-21 47-21 19 0 35 7 47 21 12 15 18 36 18 63 0 13-2 25-4 34-3 10-7 19-13 27zm-22-19c7-9 11-23 11-42 0-19-4-33-11-42-7-10-15-14-26-14-11 0-20 4-27 14-7 9-10 23-10 42 0 19 3 34 10 43 7 9 16 14 26 14 4 0 7-1 11-2-6-5-11-8-17-11l8-18c9 3 17 9 25 16zM2376 3354l40-47c18-22 53-53 53-81 0-27-21-49-46-49-24 0-44 19-46 44l-1 0c-3-25-22-44-46-44-26 0-47 22-47 49 0 28 35 59 54 81l39 47zM3231 2952l27 0 0 103c0 17-2 29-5 37-4 9-9 15-15 19-7 5-15 7-25 7-13 0-23-5-30-13-7-9-11-22-11-40l26-4c0 10 1 16 3 20 3 6 7 9 13 9 6 0 10-2 13-6 2-4 4-13 4-27l0-105zM3215 3354l39-47c19-22 54-53 54-81 0-27-21-49-47-49-24 0-43 19-46 44l0 0c-3-25-23-44-47-44-25 0-46 22-46 49 0 28 35 59 53 81l40 47zM4019 3115l-25 0 0-118c-10 11-21 19-34 24l0-28c8-3 15-8 23-16 7-7 13-16 16-25l20 0 0 163zM4082 2952c13 0 23 6 31 18 8 12 12 34 12 65 0 31-4 52-12 65-8 12-18 18-31 18-13 0-24-6-32-18-8-12-12-34-12-65 0-31 4-53 12-65 8-12 19-18 32-18zm0 26c-5 0-9 3-12 10-3 6-5 22-5 47 0 25 2 41 5 47 3 7 7 10 12 10 5 0 9-3 12-10 3-7 4-22 4-47 0-25-1-41-4-47-3-7-7-10-12-10zM4053 3354l40-47c18-22 53-53 53-81 0-27-20-49-46-49-24 0-44 19-46 44l-1 0c-2-25-22-44-46-44-26 0-47 22-47 49 0 28 36 59 54 81l39 47zM4850 3078l25-4c1 12 6 18 14 18 6 0 11-3 14-9 4-6 6-18 7-37-3 5-7 8-11 11-4 2-8 3-13 3-10 0-19-5-27-14-8-10-12-23-12-39 0-17 4-31 13-41 8-9 18-14 30-14 14 0 25 6 34 19 8 12 13 33 13 63 0 30-5 51-14 64-9 14-21 20-35 20-11 0-19-3-25-10-7-6-11-17-13-30zm58-69c0-10-2-18-6-23-4-6-8-8-13-8-5 0-9 2-12 6-3 5-5 12-5 23 0 10 2 18 6 23 3 5 7 7 12 7 5 0 9-2 13-7 3-5 5-11 5-21zM4892 3354l40-47c18-22 53-53 53-81 0-27-21-49-46-49-24 0-44 19-47 44l0 0c-3-25-23-44-46-44-26 0-47 22-47 49 0 28 35 59 54 81l39 47zM5709 3027c-6-3-11-8-14-13-3-6-5-13-5-20 0-13 4-23 11-31 7-8 17-11 29-11 13 0 23 4 30 12 7 8 10 18 10 29 0 8-1 15-5 21-3 6-8 10-13 13 7 4 13 9 17 16 4 7 6 15 6 25 0 10-2 19-6 26-4 8-9 14-15 18-7 4-14 6-23 6-13 0-23-4-32-13-8-9-12-21-12-36 0-10 2-19 6-26 3-7 9-12 16-16zm5-31c0 6 2 11 5 14 3 4 7 5 11 5 5 0 9-1 12-5 3-3 4-8 4-14 0-6-1-11-4-14-3-4-7-6-11-6-5 0-9 2-12 6-3 3-5 8-5 14zm-2 70c0 8 2 15 5 20 4 5 9 7 14 7 5 0 9-2 13-7 3-4 5-11 5-20 0-8-2-14-5-19-4-4-8-6-14-6-5 0-9 2-13 6-3 5-5 11-5 19zM5731 3354l39-47c18-22 54-53 54-81 0-27-21-49-47-49-24 0-43 19-46 44l-1 0c-2-25-22-44-46-44-26 0-46 22-46 49 0 28 35 59 53 81l40 47zM6525 2983l0-29 88 0 0 23c-7 9-14 21-22 37-7 16-13 33-17 52-4 18-6 34-6 49l-24 0c0-23 4-46 11-69 7-23 17-44 29-63l-59 0zM6569 3354l40-47c18-22 53-53 53-81 0-27-20-49-46-49-24 0-44 19-46 44l-1 0c-3-25-22-44-46-44-26 0-47 22-47 49 0 28 36 59 54 81l39 47zM7450 2992l-25 4c-1-13-6-19-14-19-6 0-11 3-14 9-4 7-6 19-7 37 3-4 7-8 10-10 4-2 9-3 13-3 11 0 20 4 28 14 8 10 12 23 12 39 0 17-4 31-13 40-8 10-18 15-30 15-14 0-25-6-34-19-8-13-13-34-13-63 0-30 5-52 14-65 9-13 21-19 35-19 10 0 18 3 25 10 7 6 11 17 13 30zm-58 68c0 11 2 19 6 24 4 5 8 8 13 8 5 0 9-2 12-7 3-4 5-12 5-22 0-10-2-18-6-23-3-5-7-7-12-7-5 0-9 2-13 7-3 4-5 11-5 20zM7408 3354l39-47c19-22 54-53 54-81 0-27-21-49-47-49-23 0-43 19-46 44l0 0c-3-25-23-44-47-44-25 0-46 22-46 49 0 28 35 59 53 81l40 47zM8247 3354l39-47c18-22 54-53 54-81 0-27-21-49-47-49-24 0-44 19-46 44l-1 0c-2-25-22-44-46-44-26 0-46 22-46 49 0 28 35 59 53 81l40 47zM8202 3073l25-3c1 7 3 13 7 17 3 4 8 6 12 6 5 0 10-3 14-8 3-5 5-13 5-24 0-10-2-18-5-22-4-5-9-8-15-8-7 0-14 4-20 12l-20-4 13-85 68 0 0 30-49 0-4 27c6-3 12-5 18-5 10 0 19 4 27 13 9 10 13 24 13 42 0 14-3 27-11 39-8 12-20 18-34 18-12 0-22-4-30-12-8-7-13-18-14-33zM9085 3354l40-47c18-22 53-53 53-81 0-27-21-49-46-49-24 0-44 19-47 44l0 0c-3-25-22-44-46-44-26 0-47 22-47 49 0 28 35 59 54 81l39 47zM9092 3115l0-32-55 0 0-28 58-103 22 0 0 103 16 0 0 28-16 0 0 32-25 0zm0-60l0-56-31 56 31 0zM9924 3354l39-47c19-22 54-53 54-81 0-27-21-49-47-49-24 0-43 19-46 44l-1 0c-2-25-22-44-46-44-25 0-46 22-46 49 0 28 35 59 53 81l40 47zM9879 3072l25-4c1 8 3 14 6 18 4 4 8 6 13 6 5 0 10-2 13-7 4-5 6-12 6-20 0-8-2-14-5-19-4-4-8-7-13-7-3 0-7 1-12 3l3-26c7 0 12-2 16-5 4-4 6-9 6-16 0-5-2-10-5-13-2-3-6-5-10-5-5 0-8 2-12 6-3 4-5 9-5 16l-24-5c3-15 7-25 15-32 7-7 16-10 27-10 12 0 21 4 29 13 7 8 10 18 10 28 0 7-1 14-4 20-4 5-9 10-15 15 7 2 14 6 18 13 5 7 7 15 7 25 0 15-4 28-13 37-9 10-19 15-32 15-11 0-21-4-30-12-8-8-12-20-14-34zM10762 3354l40-47c18-22 53-53 53-81 0-27-20-49-46-49-24 0-44 19-46 44l-1 0c-3-25-22-44-46-44-26 0-47 22-47 49 0 28 36 59 54 81l39 47zM10807 3086l0 29-90 0c1-11 4-21 9-31 5-10 15-23 29-39 11-13 18-21 21-26 4-7 6-13 6-20 0-7-2-12-5-16-3-4-8-5-13-5-11 0-17 8-18 25l-26-3c2-17 7-29 14-37 8-8 18-11 31-11 14 0 25 4 32 13 7 9 10 20 10 32 0 6-1 13-2 19-2 6-5 13-9 19-4 6-10 14-19 24-8 10-13 16-15 19-2 3-4 6-6 8l51 0zM176 2743l39-47c18-22 54-53 54-81 0-27-21-49-47-49-24 0-43 19-46 44l-1 0c-2-25-22-44-46-44-26 0-46 22-46 49 0 28 35 59 53 81l40 47zM217 2504l-29 0-12-37-54 0-11 37-28 0 52-163 29 0 53 163zm-50-64l-18-61-18 61 36 0zM699 3354l40-47c18-22 53-53 53-81 0-27-21-49-46-49-24 0-44 19-47 44l0 0c-3-25-23-44-47-44-25 0-46 22-46 49 0 28 35 59 53 81l40 47zM766 3115l-29 0-12-37-53 0-11 37-29 0 52-163 29 0 53 163zm-49-64l-19-61-18 61 37 0z"/>

<!-- l4 -->

<path class="l4" d="M6878 3515l-24 4c-2-12-6-19-15-19-6 0-10 4-14 10-4 6-6 18-7 36 3-4 7-8 11-10 4-2 8-3 13-3 10 0 19 5 27 14 8 10 12 23 12 39 0 17-4 31-12 41-9 9-19 14-31 14-13 0-24-6-33-19-9-13-13-34-13-63 0-30 4-51 13-65 9-13 21-19 35-19 10 0 19 3 26 10 6 6 11 17 12 30zm-58 69c0 10 2 18 6 23 4 6 8 8 13 8 5 0 9-2 12-7 3-4 5-11 5-22 0-10-2-18-5-23-4-5-8-7-13-7-5 0-9 2-13 7-3 4-5 11-5 21zM5953 3504l0-29 88 0 0 22c-8 9-15 21-22 37-8 16-13 34-17 52-4 18-6 35-6 50l-25 0c1-23 4-47 12-70 7-23 16-44 28-62l-58 0zM5137 3550c-7-3-11-7-15-13-3-6-4-12-4-20 0-13 3-23 11-31 7-7 17-11 29-11 13 0 23 4 30 12 6 8 10 18 10 29 0 8-2 15-5 21-3 6-8 10-14 13 8 4 14 9 17 16 4 7 6 15 6 25 0 10-2 19-5 26-4 8-9 14-16 18-7 4-14 6-22 6-13 0-24-4-32-13-9-9-13-21-13-36 0-10 2-18 6-26 4-7 9-12 17-16zm5-31c0 6 1 11 4 15 3 3 7 5 12 5 4 0 8-2 11-5 3-4 5-9 5-15 0-6-2-11-5-14-3-4-6-5-11-5-5 0-9 1-12 5-3 3-4 8-4 14zm-3 70c0 9 2 15 6 20 4 5 8 7 13 7 5 0 10-2 13-7 4-4 6-11 6-20 0-8-2-14-6-18-3-5-8-7-13-7-5 0-10 2-13 7-4 4-6 10-6 18zM4278 3601l25-4c1 12 6 18 15 18 5 0 10-3 14-9 3-6 6-18 7-36-4 4-7 8-11 10-4 2-9 3-14 3-10 0-19-5-27-14-7-10-11-23-11-39 0-17 4-31 12-40 8-10 18-15 31-15 13 0 24 6 33 19 9 13 13 34 13 63 0 30-4 51-14 65-9 13-21 19-35 19-10 0-19-3-25-10-7-6-11-17-13-30zm58-69c0-10-2-18-5-23-4-6-9-8-14-8-4 0-8 2-11 6-4 5-5 12-5 23 0 10 2 18 5 23 3 5 8 7 13 7 5 0 9-2 12-7 4-4 5-11 5-21zM3496 3639l-26 0 0-118c-9 10-20 18-33 23l0-28c7-3 15-8 22-16 8-7 13-16 16-25l21 0 0 164zM3558 3475c13 0 24 6 32 18 8 13 12 34 12 65 0 31-4 52-12 65-8 12-19 18-31 18-13 0-24-6-32-18-8-12-12-34-12-65 0-31 4-52 12-65 8-12 19-18 31-18zm1 26c-6 0-10 3-13 10-3 6-4 22-4 47 0 25 1 41 4 47 3 7 7 10 13 10 5 0 9-3 12-10 3-6 4-22 4-47 0-25-1-41-4-47-3-7-7-10-12-10zM2657 3475l27 0 0 103c0 17-1 29-5 37-3 9-8 15-15 19-6 5-15 7-24 7-13 0-23-5-31-13-7-9-10-23-11-40l26-4c0 10 2 16 4 20 3 6 7 9 13 9 5 0 10-2 12-6 3-4 4-13 4-27l0-105zM921,3638L 921 3475 948 3475 948 3547 1003 3475 1040 3475 989 3538 1042 3638 1007 3638 970 3561 948 3589 948 3638zM1873 3620c7 6 14 10 22 14l-10 23c-4-1-8-3-12-6-1 0-7-5-18-14-9 4-19 7-30 7-20 0-35-8-47-22-12-15-18-35-18-63 0-27 6-48 18-63 12-14 28-21 47-21 19 0 35 7 47 21 12 15 18 36 18 63 0 13-2 25-4 34-3 10-7 19-13 27zm-22-19c7-9 11-23 11-42 0-19-4-33-11-42-6-9-15-14-26-14-11 0-20 5-27 14-7 9-10 23-10 42 0 20 3 34 10 43 7 10 16 14 26 14 4 0 7-1 11-2-6-5-11-8-17-10l8-19c9 3 17 9 25 16zM10239 3700l40 44c18 20 53 49 53 75 0 25-21 45-46 45-18 0-33-10-41-24l0 23 12 12 19 16-37 0-37 0 19-16 12-12 0-23c-7 14-23 24-40 24-26 0-47-20-47-45 0-26 35-55 53-75l40-44zM9400 3700l40 44c18 20 53 49 53 75 0 25-20 45-46 45-18 0-33-10-41-24l0 23 13 12 18 16-37 0-36 0 18-16 13-12 0-23c-8 14-23 24-41 24-26 0-47-20-47-45 0-26 36-55 54-75l39-44zM8562 3700l39 44c19 20 54 49 54 75 0 25-21 45-47 45-17 0-33-10-41-24l0 23 13 12 19 16-37 0-37 0 18-16 13-12 0-23c-8 14-23 24-41 24-25 0-46-20-46-45 0-26 35-55 53-75l40-44zM7723 3700l40 44c18 20 53 49 53 75 0 25-21 45-46 45-18 0-33-10-41-24l0 23 13 12 18 16-37 0-37 0 19-16 13-12 0-23c-8 14-24 24-41 24-26 0-47-20-47-45 0-26 35-55 54-75l39-44zM6885 3700l39 44c18 20 54 49 54 75 0 25-21 45-47 45-18 0-33-10-41-24l0 23 13 12 18 16-36 0-37 0 18-16 13-12 0-23c-8 14-23 24-41 24-26 0-46-20-46-45 0-26 35-55 53-75l40-44zM6046 3700l39 44c19 20 54 49 54 75 0 25-21 45-47 45-17 0-33-10-40-24l0 23 12 12 19 16-37 0-37 0 19-16 12-12 0-23c-8 14-23 24-41 24-25 0-46-20-46-45 0-26 35-55 53-75l40-44zM5207 3700l40 44c18 20 53 49 53 75 0 25-20 45-46 45-18 0-33-10-41-24l0 23 13 12 18 16-37 0-36 0 18-16 13-12 0-23c-8 14-24 24-41 24-26 0-47-20-47-45 0-26 36-55 54-75l39-44zM4369 3700l39 44c18 20 54 49 54 75 0 25-21 45-47 45-17 0-33-10-41-24l0 23 13 12 18 16-36 0-37 0 18-16 13-12 0-23c-8 14-23 24-41 24-25 0-46-20-46-45 0-26 35-55 53-75l40-44zM3530 3700l40 44c18 20 53 49 53 75 0 25-21 45-46 45-18 0-33-10-41-24l0 23 12 12 19 16-37 0-37 0 19-16 12-12 0-23c-7 14-23 24-40 24-26 0-47-20-47-45 0-26 35-55 54-75l39-44zM2691 3700l40 44c18 20 54 49 54 75 0 25-21 45-47 45-18 0-33-10-41-24l0 23 13 12 18 16-37 0-36 0 18-16 13-12 0-23c-8 14-23 24-41 24-26 0-47-20-47-45 0-26 36-55 54-75l39-44zM1853 3700l39 44c19 20 54 49 54 75 0 25-21 45-47 45-17 0-33-10-40-24l0 23 12 12 19 16-37 0-37 0 19-16 12-12 0-23c-8 14-23 24-41 24-25 0-46-20-46-45 0-26 35-55 53-75l40-44zM1014 3700l40 44c18 20 53 49 53 75 0 25-21 45-46 45-18 0-33-10-41-24l0 23 13 12 18 16-37 0-36 0 18-16 13-12 0-23c-8 14-24 24-41 24-26 0-47-20-47-45 0-26 36-55 54-75l39-44zM10236 3610l0 29-90 0c1-11 4-22 9-32 5-10 14-23 29-39 11-13 18-21 20-26 4-6 6-13 6-20 0-7-1-12-5-16-3-3-7-5-12-5-11 0-18 8-18 25l-26-3c2-17 6-29 14-37 7-7 18-11 30-11 15 0 25 4 32 13 7 10 11 20 11 32 0 7-1 13-3 19-2 7-4 13-8 19-4 7-10 15-19 24-8 10-14 16-16 19-2 3-4 6-5 9l51 0zM9307 3595l25-3c1 7 3 13 7 17 3 4 7 6 12 6 5 0 10-2 13-7 4-5 6-11 6-20 0-8-2-14-5-19-4-4-8-6-13-6-3 0-7 0-12 2l3-26c7 0 12-1 16-5 4-4 6-9 6-16 0-5-2-10-4-13-3-3-7-5-11-5-4 0-8 2-11 6-4 4-5 9-6 16l-24-4c3-15 7-26 15-33 7-7 16-10 27-10 12 0 21 4 29 13 7 8 10 18 10 28 0 8-1 14-4 20-4 5-8 10-15 15 8 2 14 6 18 13 5 7 7 15 7 26 0 15-4 27-13 37-9 9-19 14-32 14-11 0-21-4-29-12-9-8-13-20-15-34zM8524 3639l0-33-55 0 0-28 58-103 21 0 0 103 17 0 0 28-17 0 0 33-24 0zm0-61l0-56-31 56 31 0zM7630 3594l26-4c0 8 3 13 6 17 4 4 8 6 13 6 5 0 9-2 13-7 4-6 6-14 6-24 0-11-2-18-6-23-4-5-8-7-14-7-8 0-14 4-20 11l-21-3 13-85 68 0 0 29-48 0-4 28c5-4 11-5 17-5 11 0 20 4 27 12 9 11 14 25 14 42 0 14-4 27-12 40-8 12-19 18-34 18-12 0-21-4-29-12-8-8-13-19-15-33zM10762 4297l40 44c18 20 53 49 53 74 0 26-20 46-46 46-18 0-33-10-41-24l0 23 13 11 18 17-37 0-36 0 18-17 13-11 0-23c-8 14-23 24-41 24-26 0-47-20-47-46 0-25 36-54 54-74l39-44zM10807 4206l0 29-90 0c1-11 4-21 9-31 5-10 15-23 29-39 11-13 18-22 21-26 4-7 6-14 6-20 0-7-2-13-5-16-3-4-8-6-13-6-11 0-17 9-18 26l-26-4c2-16 7-28 14-36 8-8 18-12 31-12 14 0 25 5 32 14 7 9 10 19 10 31 0 7-1 13-2 20-2 6-5 12-9 19-4 6-10 14-19 24-8 9-13 15-15 18-2 3-4 6-6 9l51 0zM9924 4297l39 44c19 20 54 49 54 74 0 26-21 46-47 46-17 0-33-10-41-24l0 23 13 11 18 17-36 0-37 0 18-17 13-11 0-23c-8 14-23 24-41 24-25 0-46-20-46-46 0-25 35-54 53-74l40-44zM9879 4192l25-4c1 8 3 14 6 18 4 4 8 6 13 6 5 0 10-3 13-7 4-5 6-12 6-20 0-8-2-15-5-19-4-5-8-7-13-7-3 0-7 1-12 2l3-25c7 0 12-2 16-6 4-3 6-8 6-15 0-6-2-10-5-13-2-3-6-5-10-5-5 0-8 2-12 5-3 4-5 10-5 17l-24-5c3-15 7-26 15-33 7-6 16-10 27-10 12 0 21 5 29 13 7 9 10 18 10 29 0 7-1 13-5 19-3 6-8 11-14 15 7 2 14 7 18 13 5 7 7 16 7 26 0 15-4 27-13 37-9 10-19 15-32 15-11 0-21-4-30-13-8-8-12-19-14-33zM9085 4297l40 44c18 20 53 49 53 74 0 26-21 46-46 46-18 0-33-10-41-24l0 23 13 11 18 17-37 0-37 0 19-17 13-11 0-23c-8 14-24 24-41 24-26 0-47-20-47-46 0-25 35-54 54-74l39-44zM9092 4235l0-33-55 0 0-27 58-104 22 0 0 104 16 0 0 27-16 0 0 33-25 0zm0-60l0-56-31 56 31 0zM8247 4297l39 44c18 20 54 49 54 74 0 26-21 46-47 46-18 0-33-10-41-24l0 23 13 11 18 17-36 0-37 0 18-17 13-11 0-23c-8 14-23 24-41 24-26 0-46-20-46-46 0-25 35-54 53-74l40-44zM8202 4193l25-3c1 7 3 12 7 16 3 5 8 7 12 7 5 0 10-3 14-8 3-5 5-13 5-24 0-10-2-18-5-23-4-5-9-7-15-7-7 0-14 4-20 12l-20-4 13-85 68 0 0 29-49 0-4 28c6-4 12-5 18-5 10 0 19 4 27 12 9 11 13 25 13 42 0 15-3 28-11 40-8 12-20 18-34 18-12 0-22-4-30-12-8-8-13-19-14-33zM7450 4112l-25 3c-1-12-6-18-14-18-6 0-11 3-14 9-4 6-6 18-7 37 3-5 7-8 10-10 4-3 9-4 13-4 11 0 20 5 28 15 8 10 12 22 12 39 0 17-4 30-13 40-8 10-18 15-30 15-14 0-25-7-34-19-8-13-13-34-13-64 0-29 5-51 14-64 9-13 21-20 35-20 10 0 18 4 25 10 7 7 11 17 13 31zm-58 68c0 10 2 18 6 24 4 5 8 8 13 8 5 0 9-2 12-7 3-5 5-12 5-22 0-11-2-19-6-24-3-4-7-7-12-7-5 0-9 3-13 7-3 5-5 12-5 21zM7408 4297l39 44c19 20 54 49 54 74 0 26-21 46-47 46-17 0-33-10-40-24l0 23 12 11 19 17-37 0-37 0 19-17 12-11 0-23c-8 14-23 24-41 24-25 0-46-20-46-46 0-25 35-54 53-74l40-44zM6525 4103l0-29 88 0 0 23c-7 8-14 21-22 37-7 16-13 33-17 51-4 18-6 35-6 50l-24 0c0-23 4-46 11-69 7-24 17-44 29-63l-59 0zM6569 4297l40 44c18 20 53 49 53 74 0 26-20 46-46 46-18 0-33-10-41-24l0 23 13 11 18 17-37 0-36 0 18-17 13-11 0-23c-8 14-24 24-41 24-26 0-47-20-47-46 0-25 36-54 54-74l39-44zM5709 4147c-6-3-11-8-14-14-3-5-5-12-5-20 0-13 4-23 11-30 7-8 17-12 29-12 13 0 23 4 30 12 7 8 10 18 10 30 0 8-1 15-5 21-3 5-8 10-13 13 7 4 13 9 17 15 4 7 6 15 6 25 0 10-2 19-6 27-4 8-9 14-15 18-7 4-14 6-23 6-13 0-23-5-32-14-8-9-12-21-12-36 0-10 2-18 6-25 3-7 9-12 16-16zm5-32c0 7 2 12 5 15 3 3 7 5 11 5 5 0 9-2 12-5 3-3 4-8 4-15 0-6-1-10-4-14-3-3-7-5-11-5-5 0-9 2-12 5-3 4-5 8-5 14zm-2 70c0 9 2 16 5 21 4 4 9 7 14 7 5 0 9-3 13-7 3-5 5-11 5-21 0-7-2-13-5-18-4-5-8-7-14-7-5 0-9 2-13 7-3 5-5 11-5 18zM5731 4297l39 44c18 20 54 49 54 74 0 26-21 46-47 46-17 0-33-10-41-24l0 23 13 11 18 17-36 0-37 0 18-17 13-11 0-23c-8 14-23 24-41 24-26 0-46-20-46-46 0-25 35-54 53-74l40-44zM4850 4197l25-3c1 12 6 18 14 18 6 0 11-3 14-9 4-6 6-18 7-37-3 5-7 8-11 10-4 3-8 4-13 4-10 0-19-5-27-15-8-9-12-22-12-38 0-18 4-31 13-41 8-10 18-15 30-15 14 0 25 7 34 19 8 13 13 34 13 63 0 30-5 52-14 65-9 13-21 20-35 20-11 0-19-4-25-10-7-7-11-17-13-31zm58-68c0-10-2-18-6-24-4-5-8-8-13-8-5 0-9 2-12 7-3 4-5 12-5 22 0 11 2 19 6 23 3 5 7 8 12 8 5 0 9-3 13-7 3-5 5-12 5-21zM4892 4297l40 44c18 20 53 49 53 74 0 26-21 46-46 46-18 0-33-10-41-24l0 23 12 11 19 17-37 0-37 0 19-17 12-11 0-23c-7 14-23 24-40 24-26 0-47-20-47-46 0-25 35-54 54-74l39-44zM4019 4235l-25 0 0-118c-10 11-21 19-34 24l0-29c8-3 15-8 23-15 7-8 13-16 16-26l20 0 0 164zM4082 4071c13 0 23 6 31 19 8 12 12 34 12 65 0 30-4 52-12 64-8 13-18 19-31 19-13 0-24-6-32-19-8-12-12-34-12-65 0-30 4-52 12-64 8-13 19-19 32-19zm0 26c-5 0-9 4-12 10-3 7-5 23-5 48 0 24 2 40 5 47 3 6 7 10 12 10 5 0 9-4 12-10 3-7 4-23 4-47 0-25-1-41-4-48-3-6-7-10-12-10zM4053 4297l40 44c18 20 53 49 53 74 0 26-20 46-46 46-18 0-33-10-41-24l0 23 13 11 18 17-37 0-36 0 18-17 13-11 0-23c-8 14-23 24-41 24-26 0-47-20-47-46 0-25 36-54 54-74l39-44zM3231 4071l27 0 0 104c0 17-2 29-5 37-4 8-9 15-15 19-7 4-15 7-25 7-13 0-23-5-30-14-7-9-11-22-11-40l26-3c0 9 1 16 3 20 3 5 7 8 13 8 6 0 10-2 13-6 2-4 4-13 4-26l0-106zM3215 4297l39 44c19 20 54 49 54 74 0 26-21 46-47 46-17 0-33-10-41-24l0 23 13 11 19 17-37 0-37 0 18-17 13-11 0-23c-8 14-23 24-41 24-25 0-46-20-46-46 0-25 35-54 53-74l40-44zM2396 4209c7 5 14 10 22 13l-10 24c-4-2-8-4-12-6-1-1-7-6-18-15-9 5-19 7-30 7-19 0-35-7-47-22-12-14-18-35-18-62 0-28 6-49 18-63 12-15 28-22 47-22 20 0 35 7 47 22 12 14 18 35 18 63 0 13-1 24-4 34-3 10-7 18-13 27zm-21-19c7-10 10-24 10-42 0-19-3-34-10-43-7-9-16-14-27-14-11 0-20 5-27 14-7 10-10 24-10 43 0 19 3 33 10 43 7 9 16 14 26 14 4 0 8-1 11-3-5-4-11-8-16-10l7-19c9 4 18 9 26 17zM2376 4297l40 44c18 20 53 49 53 74 0 26-21 46-46 46-18 0-33-10-41-24l0 23 13 11 18 17-37 0-36 0 18-17 13-11 0-23c-8 14-24 24-41 24-26 0-47-20-47-46 0-25 35-54 54-74l39-44zM1538 4297l39 44c18 20 54 49 54 74 0 26-21 46-47 46-18 0-33-10-41-24l0 23 13 11 18 17-36 0-37 0 18-17 13-11 0-23c-8 14-23 24-41 24-26 0-46-20-46-46 0-25 35-54 53-74l40-44zM1477,4236L 1477 4073 1504 4073 1504 4145 1559 4073 1596 4073 1545 4136 1598 4236 1563 4236 1526 4159 1504 4187 1504 4236zM766 4235l-29 0-12-37-53 0-11 37-29 0 52-163 29 0 53 163zm-49-65l-19-60-18 60 37 0zM699 4297l40 44c18 20 53 49 53 74 0 26-21 46-46 46-18 0-33-10-41-24l0 23 12 11 19 17-37 0-37 0 19-17 12-11 0-23c-8 14-23 24-41 24-25 0-46-20-46-46 0-25 35-54 53-74l40-44zM217 3638l-29 0-12-37-54 0-11 37-28 0 52-163 29 0 53 163zm-50-64l-18-61-18 61 36 0zM176 3700l39 44c18 20 54 49 54 75 0 25-21 45-47 45-17 0-33-10-41-24l0 23 13 12 18 16-36 0-37 0 18-16 13-12 0-23c-8 14-23 24-41 24-26 0-46-20-46-45 0-26 35-55 53-75l40-44z"/>

</svg>